<!DOCTYPE svg PUBLIC "-//W3C//DTD SVG 1.1//EN" "http://www.w3.org/Graphics/SVG/1.1/DTD/svg11.dtd">
<!-- Uploaded to: SVG Repo, www.svgrepo.com, Transformed by: SVG Repo Mixer Tools -->
<svg fill="#660000" width="800px" height="800px" viewBox="0 0 512 512" enable-background="new 0 0 512 512" id="Slot_x5F_machine" version="1.1" xml:space="preserve" xmlns="http://www.w3.org/2000/svg" xmlns:xlink="http://www.w3.org/1999/xlink" stroke="#660000">
<g id="SVGRepo_bgCarrier" stroke-width="0"/>
<g id="SVGRepo_tracerCarrier" stroke-linecap="round" stroke-linejoin="round"/>
<g id="SVGRepo_iconCarrier"> <g> <path d="M464.816,146.452c-0.139,0-0.276,0.021-0.414,0.057H47.598c-0.138-0.036-0.275-0.057-0.414-0.057 c-8.283,0-14.998,64.703-14.998,144.519c0,79.816,6.715,144.52,14.998,144.52h417.633c8.283,0,14.998-64.703,14.998-144.52 C479.814,211.155,473.1,146.452,464.816,146.452z M428.803,237.096v109.465h-96.802V237.096H428.803z M304.775,237.096v109.465 h-96.801V237.096H304.775z M83.947,237.096h96.802v109.465H83.947V237.096z"/> <path d="M235.1,277.139c0,0,1.408-5.871,7.748-4.462c6.342,1.409,13.855,0.235,13.855,0.235 c-29.59,33.113-23.014,55.893-23.014,55.893h26.537c-3.172-15.41,0.125-31.555,8.125-45.021 c1.34-2.257,15.359-24.727,15.359-24.727l-8.219-6.106c0,0-3.992,3.288-11.508,3.288s-10.092-3.288-17.842-3.288 c-5.951,0-10.574,2.113-10.574,2.113v-2.113h-7.279v24.188H235.1z"/> <path d="M143.258,255.771c-7.515,0-10.092-3.288-17.842-3.288c-5.951,0-10.574,2.113-10.574,2.113v-2.113h-7.279v24.188h6.811 c0,0,1.408-5.871,7.749-4.462s13.856,0.235,13.856,0.235c-29.591,33.112-23.015,55.893-23.015,55.893h26.537 c-3.173-15.41,0.125-31.555,8.125-45.021c1.341-2.257,15.359-24.727,15.359-24.727l-8.22-6.106 C154.766,252.483,150.773,255.771,143.258,255.771z"/> <path d="M292.21,134.969l-9.284-45.21c-1.578-7.685-8.89-13.249-17.406-13.249h-8.988h-8.616c-8.518,0-15.829,5.564-17.407,13.249 l-9.283,45.21h11.425H292.21z"/> <path d="M361.572,277.139c0,0,1.409-5.871,7.75-4.462s13.855,0.235,13.855,0.235c-29.59,33.113-23.015,55.893-23.015,55.893h26.538 c-3.173-15.41,0.124-31.555,8.125-45.021c1.34-2.257,15.359-24.727,15.359-24.727l-8.221-6.106c0,0-3.992,3.288-11.507,3.288 s-10.092-3.288-17.842-3.288c-5.952,0-10.574,2.113-10.574,2.113v-2.113h-7.28v24.188H361.572z"/> </g> </g>
</svg>