<?xml version="1.0" ?>
<!DOCTYPE svg  PUBLIC '-//W3C//DTD SVG 1.1//EN'  'http://www.w3.org/Graphics/SVG/1.1/DTD/svg11.dtd'>
<!-- Uploaded to: SVG Repo, www.svgrepo.com, Generator: SVG Repo Mixer Tools -->
<svg fill="#000000" width="800px" height="800px" viewBox="0 0 32 32" style="fill-rule:evenodd;clip-rule:evenodd;stroke-linejoin:round;stroke-miterlimit:2;" version="1.1" xml:space="preserve" xmlns="http://www.w3.org/2000/svg" xmlns:serif="http://www.serif.com/" xmlns:xlink="http://www.w3.org/1999/xlink">
<g transform="matrix(1,0,0,1,-384,-336)">
<g transform="matrix(1,0,0,1,1,0)">
<path d="M390,351.417C388.235,350.336 387,347.868 387,345C387,341.137 389.24,338 392,338C394.76,338 397,341.137 397,345C397,347.868 395.765,350.336 394,351.417L394,364.033C394,365.119 393.119,366 392.033,366C392.011,366 391.989,366 391.967,366C390.881,366 390,365.119 390,364.033L390,351.417Z" style="fill:rgb(144,224,239);"/>
</g>
<g transform="matrix(1,0,0,1,2,0)">
<path d="M404,351L404,364.033C404,365.119 404.881,366 405.967,366C405.989,366 406.011,366 406.033,366C407.119,366 408,365.119 408,364.033L408,351L408.002,351C408.532,351 409.04,350.789 409.415,350.415C409.79,350.04 410,349.532 410,349.002C410,346.632 410,343 410,343L402,343L402,349C402,350.105 402.895,351 404,351C404,351 404,351 404,351Z" style="fill:rgb(144,224,239);"/>
</g>
<path d="M390,351.94L390,364.033C390,365.672 391.328,367 392.967,367L393.033,367C394.672,367 396,365.672 396,364.033C396,364.033 396,351.94 396,351.94C397.759,350.586 399,347.999 399,345C399,342.392 398.065,340.087 396.668,338.654C395.643,337.601 394.368,337 393,337C391.632,337 390.357,337.601 389.332,338.654C387.935,340.087 387,342.392 387,345C387,347.998 388.241,350.586 390,351.94ZM394,360L394,364.033C394,364.567 393.567,365 393.033,365C393.033,365 392.967,365 392.967,365C392.433,365 392,364.567 392,364.033L392,360L394,360ZM394,358L392,358L392,351.417C392,351.069 391.819,350.746 391.522,350.564C390,349.632 389,347.474 389,345C389,342.972 389.678,341.164 390.764,340.049C391.394,339.403 392.16,339 393,339C393.84,339 394.606,339.403 395.236,340.049C396.322,341.164 397,342.972 397,345C397,347.474 396,349.632 394.478,350.564C394.181,350.746 394,351.069 394,351.417L394,358Z" style="fill:rgb(25,144,167);"/>
<path d="M405,351.829L405,364.033C405,365.672 406.328,367 407.967,367L408.033,367C409.672,367 411,365.672 411,364.033L411,351.829C411.418,351.681 411.802,351.441 412.122,351.122C412.684,350.56 413,349.797 413,349.002L413,338C413,337.448 412.552,337 412,337C411.448,337 411,337.448 411,338L411,342L409,342L409,338C409,337.448 408.552,337 408,337C407.448,337 407,337.448 407,338L407,342L405,342L405,338C405,337.448 404.552,337 404,337C403.448,337 403,337.448 403,338L403,349C403,350.306 403.835,351.418 405,351.829ZM409,360L407,360L407,364.033C407,364.567 407.433,365 407.967,365C407.967,365 408.033,365 408.033,365C408.567,365 409,364.567 409,364.033L409,360ZM409,358L409,351.268C409,350.62 409.483,350.073 410.126,349.993C410.126,349.992 410.127,349.992 410.127,349.992C410.345,349.965 410.55,349.865 410.708,349.708C410.895,349.521 411,349.267 411,349.002L411,344.002L405,344C405,344 405,349 405,349C405,349.487 405.348,349.892 405.808,349.982C405.808,349.982 405.808,349.982 405.808,349.982C406.5,350.116 407,350.722 407,351.427L407,358L409,358Z" style="fill:rgb(25,144,167);"/>
</g>
</svg>