<!DOCTYPE svg PUBLIC "-//W3C//DTD SVG 1.1//EN" "http://www.w3.org/Graphics/SVG/1.1/DTD/svg11.dtd">
<!-- Uploaded to: SVG Repo, www.svgrepo.com, Transformed by: SVG Repo Mixer Tools -->
<svg fill="#000000" height="800px" width="800px" version="1.1" id="Capa_1" xmlns="http://www.w3.org/2000/svg" xmlns:xlink="http://www.w3.org/1999/xlink" viewBox="0 0 470.019 470.019" xml:space="preserve">
<g id="SVGRepo_bgCarrier" stroke-width="0"/>
<g id="SVGRepo_tracerCarrier" stroke-linecap="round" stroke-linejoin="round"/>
<g id="SVGRepo_iconCarrier"> <g> <path d="M205,438.76c4.143,0,7.5-3.357,7.5-7.5v-60c0-12.406,10.094-22.5,22.5-22.5s22.5,10.094,22.5,22.5v60 c0,4.143,3.357,7.5,7.5,7.5s7.5-3.357,7.5-7.5v-60c0-20.678-16.822-37.5-37.5-37.5s-37.5,16.822-37.5,37.5v60 C197.5,435.402,200.857,438.76,205,438.76z"/> <path d="M468.021,216.614L409,144.046V56.711c0-4.143-3.357-7.5-7.5-7.5s-7.5,3.357-7.5,7.5v5.365l-55.854,27.927 c-2.54,1.271-4.146,3.867-4.146,6.708s1.605,5.438,4.146,6.708L394,131.346v12.7l-59.318,72.932 c-1.826,2.245-2.197,5.341-0.954,7.954s3.879,4.278,6.772,4.278H353v25h-40.5v-75h2.5c4.143,0,7.5-3.357,7.5-7.5v-32.5H335 c4.162,0,7.52-3.357,7.52-7.5c0-1.968-0.758-3.759-1.997-5.097L240.818,4.027C239.394,2.276,237.257,1.26,235,1.26 s-4.395,1.017-5.818,2.768l-100,122.951c-1.826,2.245-2.197,5.341-0.954,7.954c1.243,2.613,3.879,4.278,6.772,4.278h12.5v32.5 c0,4.143,3.357,7.5,7.5,7.5h2.5v75H117v-25h12.5c4.162,0,7.52-3.357,7.52-7.5c0-1.968-0.758-3.759-1.998-5.097L76,144.046V56.711 c0-4.143-3.357-7.5-7.5-7.5s-7.5,3.357-7.5,7.5v5.365L5.145,90.003C2.605,91.273,1,93.87,1,96.711s1.605,5.438,4.146,6.708 L61,131.346v12.7L1.681,216.978c-1.826,2.245-2.197,5.341-0.954,7.954s3.879,4.278,6.772,4.278H20V461.26 c0,4.143,3.357,7.5,7.5,7.5h415c4.143,0,7.5-3.357,7.5-7.5V229.211h12.5c4.162,0,7.52-3.357,7.52-7.5 C470.019,219.743,469.262,217.952,468.021,216.614z M358.27,96.711L394,78.846v35.729L358.27,96.711z M401.5,158.597l45.232,55.614 h-90.465L401.5,158.597z M353,269.211V453.76h-40.5V269.211H353z M235,20.646l84.232,103.564H150.767L235,20.646z M255,179.211 c4.143,0,7.5-3.357,7.5-7.5s-3.357-7.5-7.5-7.5h-92.5v-25h145v25H285c-4.143,0-7.5,3.357-7.5,7.5s3.357,7.5,7.5,7.5h12.5V453.76 h-125V179.211H255z M25.27,96.711L61,78.846v35.729L25.27,96.711z M68.5,158.597l45.232,55.614H23.267L68.5,158.597z M35,229.211 h67V401.26c0,4.143,3.357,7.5,7.5,7.5s7.5-3.357,7.5-7.5V269.211h40.5V453.76H117v-22.5c0-4.143-3.357-7.5-7.5-7.5 s-7.5,3.357-7.5,7.5v22.5H35V229.211z M435,453.76h-67V229.211h67V453.76z"/> <path d="M401.5,319.211c4.143,0,7.5-3.357,7.5-7.5v-60c0-4.143-3.357-7.5-7.5-7.5s-7.5,3.357-7.5,7.5v60 C394,315.853,397.357,319.211,401.5,319.211z"/> <path d="M68.5,244.211c-4.143,0-7.5,3.357-7.5,7.5v60c0,4.143,3.357,7.5,7.5,7.5s7.5-3.357,7.5-7.5v-60 C76,247.568,72.642,244.211,68.5,244.211z"/> </g> </g>
</svg>