<!DOCTYPE svg PUBLIC "-//W3C//DTD SVG 1.1//EN" "http://www.w3.org/Graphics/SVG/1.1/DTD/svg11.dtd">
<!-- Uploaded to: SVG Repo, www.svgrepo.com, Transformed by: SVG Repo Mixer Tools -->
<svg height="800px" width="800px" version="1.1" id="Capa_1" xmlns="http://www.w3.org/2000/svg" xmlns:xlink="http://www.w3.org/1999/xlink" viewBox="0 0 15.479 15.479" xml:space="preserve" fill="#000000">
<g id="SVGRepo_bgCarrier" stroke-width="0"/>
<g id="SVGRepo_tracerCarrier" stroke-linecap="round" stroke-linejoin="round"/>
<g id="SVGRepo_iconCarrier"> <g> <g> <path style="fill:#422914;" d="M0.318,3.357h6.936l1.397-1.455c0,0-6.411,0-7.466,0c-1.054,0-0.878,0.76-0.878,0.76L0.318,3.357z"/> <path style="fill:#422914;" d="M14.89,1.814h-4.438c-0.168,0-0.329,0.072-0.44,0.199L8.283,3.97H0.589C0.264,3.97,0,4.233,0,4.558 v8.519c0,0.325,0.264,0.588,0.589,0.588H14.89c0.325,0,0.589-0.263,0.589-0.588V2.403C15.479,2.078,15.216,1.814,14.89,1.814z M14.302,12.488H1.177V5.146h7.372c0.169,0,0.328-0.072,0.44-0.198l1.729-1.958h3.583v9.498H14.302z"/> <path style="fill:#422914;" d="M10.99,6.748H9.504L9.379,6.376c0-0.125-0.144-0.228-0.323-0.228H7.678 c-0.179,0-0.325,0.102-0.325,0.228L7.229,6.748H7.018H5.806V6.444H4.937v0.304H4.804c-0.284,0-0.515,0.23-0.515,0.515v3.662 c0,0.285,0.231,0.516,0.515,0.516h5.832c0.755,0,0.869-0.23,0.869-0.516V7.263C11.505,6.978,11.273,6.748,10.99,6.748z M8.118,10.576c-0.853,0-1.547-0.692-1.547-1.546s0.694-1.546,1.547-1.546c0.854,0,1.546,0.692,1.546,1.546 C9.664,9.884,8.972,10.576,8.118,10.576z"/> <circle style="fill:#422914;" cx="8.094" cy="9.03" r="0.98"/> </g> </g> </g>
</svg>