<!DOCTYPE svg PUBLIC "-//W3C//DTD SVG 1.1//EN" "http://www.w3.org/Graphics/SVG/1.1/DTD/svg11.dtd">
<!-- Uploaded to: SVG Repo, www.svgrepo.com, Transformed by: SVG Repo Mixer Tools -->
<svg fill="#328f6c" height="800px" width="800px" version="1.1" id="Capa_1" xmlns="http://www.w3.org/2000/svg" xmlns:xlink="http://www.w3.org/1999/xlink" viewBox="0 0 395 395" xml:space="preserve" stroke="#328f6c">
<g id="SVGRepo_bgCarrier" stroke-width="0"/>
<g id="SVGRepo_tracerCarrier" stroke-linecap="round" stroke-linejoin="round"/>
<g id="SVGRepo_iconCarrier"> <g> <path d="M297.567,223.101c-0.799-0.025-1.552,0.435-1.887,1.169l-0.392,0.861c-2.256,4.956-4.387,9.638-7.411,14.001 c-8.509,12.273-21.229,21.763-38.886,29.011c-10.839,4.449-23.025,7.309-36.357,8.557V175.038 c19.157-6.36,33.018-24.437,33.018-45.701c0-26.551-21.601-48.152-48.151-48.152s-48.151,21.602-48.151,48.152 c0,21.265,13.861,39.341,33.018,45.701v101.589c-2.461-0.227-4.888-0.498-7.322-0.879c-18.874-2.95-34.992-8.808-47.903-17.414 c-7.024-4.682-12.965-10.086-17.658-16.063c-4.46-5.68-7.464-12.003-10.159-17.992c-0.331-0.736-1.082-1.24-1.876-1.179 c-0.806,0.02-1.52,0.524-1.812,1.275c-4.74,12.217-3.162,24.307-1.003,32.298c9.893,36.624,46.588,56.821,75.005,62.989 c9.166,1.99,18.585,2.999,27.993,2.998c22.589,0,44.135-5.732,62.308-16.576c15.959-9.523,28.24-22.217,35.517-36.708 c7.574-15.085,9.001-31.481,3.916-44.983C299.087,223.639,298.375,223.128,297.567,223.101z M197.5,108.7 c11.379,0,20.637,9.258,20.637,20.637s-9.258,20.636-20.637,20.636c-11.379,0-20.637-9.257-20.637-20.636 S186.121,108.7,197.5,108.7z"/> <path d="M313.002,0H82C36.785,0,0,36.784,0,81.998v230.993C0,358.211,36.785,395,82,395h231.002 C358.216,395,395,358.211,395,312.991V81.998C395,36.784,358.216,0,313.002,0z M380,312.991C380,349.94,349.945,380,313.002,380H82 c-36.944,0-67-30.06-67-67.009V81.998C15,45.056,45.056,15,82,15h231.002C349.945,15,380,45.056,380,81.998V312.991z"/> </g> </g>
</svg>