<?xml version="1.0" encoding="utf-8"?>
<!-- Uploaded to: SVG Repo, www.svgrepo.com, Generator: SVG Repo Mixer Tools -->
<svg width="800px" height="800px" viewBox="0 0 1024 1024" class="icon"  version="1.1" xmlns="http://www.w3.org/2000/svg"><path d="M128 768h768l21.333333-42.709333V213.333333l-21.333333 42.666667H128l-21.333333-42.666667v511.957334z" fill="#81D4FA" /><path d="M917.333333 725.333333h-42.666666a42.666667 42.666667 0 0 1-85.333334 0h-42.666666a42.666667 42.666667 0 0 1-85.333334 0h-42.666666a42.666667 42.666667 0 0 1-85.333334 0h-42.666666a42.666667 42.666667 0 0 1-85.333334 0h-42.666666a42.666667 42.666667 0 0 1-85.333334 0h-42.666666a42.666667 42.666667 0 0 1-85.333334 0H106.666667s0 85.333333 85.333333 85.333334c25.6 0 48.341333-11.562667 64-29.482667 15.658667 17.92 38.4 29.482667 64 29.482667s48.341333-11.562667 64-29.482667c15.658667 17.92 38.4 29.482667 64 29.482667s48.341333-11.562667 64-29.482667c15.658667 17.92 38.4 29.482667 64 29.482667s48.341333-11.562667 64-29.482667c15.658667 17.92 38.4 29.482667 64 29.482667s48.341333-11.562667 64-29.482667c15.658667 17.92 38.4 29.482667 64 29.482667 85.333333 0 85.333333-85.333333 85.333333-85.333334zM917.333333 554.666667h-42.666666a42.666667 42.666667 0 0 1-85.333334 0h-42.666666a42.666667 42.666667 0 0 1-85.333334 0h-42.666666a42.666667 42.666667 0 0 1-85.333334 0h-42.666666a42.666667 42.666667 0 0 1-85.333334 0h-42.666666a42.666667 42.666667 0 0 1-85.333334 0h-42.666666a42.666667 42.666667 0 0 1-85.333334 0H106.666667s0 85.333333 85.333333 85.333333c25.6 0 48.341333-11.562667 64-29.482667 15.658667 17.92 38.4 29.482667 64 29.482667s48.341333-11.562667 64-29.482667c15.658667 17.92 38.4 29.482667 64 29.482667s48.341333-11.562667 64-29.482667c15.658667 17.92 38.4 29.482667 64 29.482667s48.341333-11.562667 64-29.482667c15.658667 17.92 38.4 29.482667 64 29.482667s48.341333-11.562667 64-29.482667c15.658667 17.92 38.4 29.482667 64 29.482667 85.333333 0 85.333333-85.333333 85.333333-85.333333zM917.333333 384h-42.666666a42.666667 42.666667 0 0 1-85.333334 0h-42.666666a42.666667 42.666667 0 0 1-85.333334 0h-42.666666a42.666667 42.666667 0 0 1-85.333334 0h-42.666666a42.666667 42.666667 0 0 1-85.333334 0h-42.666666a42.666667 42.666667 0 0 1-85.333334 0h-42.666666a42.666667 42.666667 0 0 1-85.333334 0H106.666667s0 85.333333 85.333333 85.333333c25.6 0 48.341333-11.562667 64-29.482666 15.658667 17.92 38.4 29.482667 64 29.482666s48.341333-11.562667 64-29.482666c15.658667 17.92 38.4 29.482667 64 29.482666s48.341333-11.562667 64-29.482666c15.658667 17.92 38.4 29.482667 64 29.482666s48.341333-11.562667 64-29.482666c15.658667 17.92 38.4 29.482667 64 29.482666s48.341333-11.562667 64-29.482666c15.658667 17.92 38.4 29.482667 64 29.482666 85.333333 0 85.333333-85.333333 85.333333-85.333333zM917.333333 213.333333h-42.666666a42.666667 42.666667 0 0 1-85.333334 0h-42.666666a42.666667 42.666667 0 0 1-85.333334 0h-42.666666a42.666667 42.666667 0 0 1-85.333334 0h-42.666666a42.666667 42.666667 0 0 1-85.333334 0h-42.666666a42.666667 42.666667 0 0 1-85.333334 0h-42.666666a42.666667 42.666667 0 0 1-85.333334 0H106.666667s0 85.333333 85.333333 85.333334c25.6 0 48.341333-11.562667 64-29.482667 15.658667 17.92 38.4 29.482667 64 29.482667s48.341333-11.562667 64-29.482667c15.658667 17.92 38.4 29.482667 64 29.482667s48.341333-11.562667 64-29.482667c15.658667 17.92 38.4 29.482667 64 29.482667s48.341333-11.562667 64-29.482667c15.658667 17.92 38.4 29.482667 64 29.482667s48.341333-11.562667 64-29.482667c15.658667 17.92 38.4 29.482667 64 29.482667 85.333333 0 85.333333-85.333333 85.333333-85.333334z" fill="#03A9F4" /></svg>